<?xml version="1.0" encoding="UTF-8"?>
<svg id="Layer_1" data-name="Layer 1" xmlns="http://www.w3.org/2000/svg" viewBox="0 0 90 134.75">
  <defs>
    <style>
      .cls-1 {
        fill: #fff;
      }

      .cls-2 {
        fill: none;
        stroke: #e7d900;
        stroke-linecap: round;
        stroke-miterlimit: 10;
        stroke-width: 25px;
      }

      .cls-3 {
        fill: #231f20;
      }

      .cls-4 {
        fill: #010000;
      }

      .cls-5 {
        fill: #e7d900;
      }

      .cls-6 {
        fill: #f9ed32;
      }
    </style>
  </defs>
  <g id="yellow">
    <g id="legs_straight" data-name="legs straight">
      <line class="cls-2" x1="65" y1="122.25" x2="65" y2="107.25"/>
      <line class="cls-2" x1="25" y1="122.25" x2="25" y2="107.25"/>
    </g>
    <g id="body">
      <path class="cls-6" d="M3.5,106.5v-54.44c0-15.77,6.6-30.63,17.67-39.74,7.01-5.77,15.25-8.82,23.83-8.82s16.82,3.05,23.83,8.82c6.52,5.38,11.56,12.76,14.57,21.34,2.05,5.84,3.09,12.03,3.09,18.39v54.44H3.5Z"/>
      <path class="cls-5" d="M45,7c7.76,0,15.23,2.77,21.61,8.02,6.03,4.97,10.7,11.82,13.5,19.81,1.92,5.46,2.89,11.26,2.89,17.23v50.94H7v-50.94c0-14.74,6.13-28.58,16.39-37.04,6.38-5.25,13.85-8.02,21.61-8.02M45,0c-9.71,0-18.71,3.57-26.06,9.62C7.48,19.06,0,34.55,0,52.06v57.94h90v-57.94c0-6.92-1.17-13.52-3.29-19.55-3.24-9.25-8.72-17.18-15.65-22.89C63.71,3.57,54.71,0,45,0h0Z"/>
    </g>
  </g>
  <g id="forward">
    <g id="radioactive_symbol_small" data-name="radioactive symbol small">
      <path class="cls-3" d="M44.95,65c10,0,16.11,11.18,10.29,19.62-2.51,3.64-6.37,5.38-10.2,5.38-4.68,0-9.34-2.6-11.49-7.51-3.46-7.9,2.04-17,10.66-17.47.25-.01.49-.02.74-.02M44.95,63h0c-.28,0-.56,0-.85.02-4.67.25-8.94,2.81-11.42,6.84-2.51,4.07-2.87,9.09-.97,13.43,2.35,5.37,7.46,8.71,13.32,8.71,4.79,0,9.11-2.28,11.85-6.25,3.13-4.54,3.48-10.14.94-14.97-2.52-4.8-7.46-7.78-12.88-7.78h0Z"/>
      <g>
        <path class="cls-4" d="M43.38,80.19c1.03.55,2.2.56,3.23,0l3.41,6.02c-3.03,1.79-7.05,1.81-10.05-.03l3.41-5.99Z"/>
        <path class="cls-4" d="M49.97,68.8c3.06,1.64,5.12,5.11,5.06,8.6l-6.8-.02c-.03-1.17-.66-2.11-1.6-2.75l3.34-5.82Z"/>
        <path class="cls-4" d="M39.95,68.8l3.41,5.86c-1,.6-1.52,1.6-1.61,2.74h-6.79c-.06-3.51,1.98-6.86,4.99-8.6Z"/>
        <path class="cls-4" d="M44.91,75.17c2.95-.09,3.06,4.3.27,4.48-3.06.2-3.21-4.39-.27-4.48Z"/>
      </g>
    </g>
    <g id="visor">
      <path class="cls-3" d="M45,51.01c-6.16,0-12.06-.59-17.05-1.71-7.91-1.78-11.45-4.42-11.45-6.25v-9.04h57v9.04c0,1.83-3.54,4.48-11.45,6.25-4.99,1.12-10.88,1.71-17.05,1.71Z"/>
      <path class="cls-1" d="M72,35.51v7.53c0,.39-1.9,2.91-10.28,4.79-4.88,1.1-10.66,1.68-16.72,1.68s-11.84-.58-16.72-1.68c-8.39-1.88-10.28-4.4-10.28-4.79v-7.53h54M75,32.51H15v10.53c0,3.18,4.99,6,12.62,7.72,4.9,1.1,10.9,1.75,17.38,1.75s12.47-.65,17.38-1.75c7.64-1.72,12.62-4.53,12.62-7.72v-10.53h0Z"/>
    </g>
  </g>
</svg>